<svg width="14" height="15" viewBox="0 0 14 15" fill="none" xmlns="http://www.w3.org/2000/svg">
<path d="M6.316 9.468L6.004 7.776C6.316 7.696 6.596 7.608 6.844 7.512C7.092 7.408 7.304 7.3 7.48 7.188C7.664 7.068 7.816 6.94 7.936 6.804C8.056 6.668 8.144 6.524 8.2 6.372C8.264 6.212 8.296 6.044 8.296 5.868C8.296 5.636 8.232 5.428 8.104 5.244C7.984 5.06 7.816 4.916 7.6 4.812C7.384 4.708 7.14 4.656 6.868 4.656C6.548 4.656 6.236 4.768 5.932 4.992C5.636 5.208 5.38 5.516 5.164 5.916L4.264 5.16C4.608 4.632 5.016 4.224 5.488 3.936C5.968 3.64 6.468 3.492 6.988 3.492C7.492 3.492 7.944 3.596 8.344 3.804C8.744 4.012 9.06 4.296 9.292 4.656C9.532 5.016 9.652 5.42 9.652 5.868C9.652 6.132 9.596 6.392 9.484 6.648C9.38 6.896 9.228 7.132 9.028 7.356C8.828 7.58 8.592 7.78 8.32 7.956C8.056 8.132 7.764 8.276 7.444 8.388L7.24 9.468H6.316ZM5.896 11.232C5.896 10.968 5.972 10.752 6.124 10.584C6.276 10.416 6.476 10.332 6.724 10.332C6.988 10.332 7.192 10.412 7.336 10.572C7.48 10.724 7.552 10.944 7.552 11.232C7.552 11.496 7.476 11.712 7.324 11.88C7.172 12.048 6.972 12.132 6.724 12.132C6.46 12.132 6.256 12.056 6.112 11.904C5.968 11.744 5.896 11.52 5.896 11.232Z" fill="#444444"/>
<circle cx="7" cy="8" r="6.5" stroke="#444444"/>
</svg>
