<svg width="40" height="40" viewBox="0 0 40 40" fill="none" xmlns="http://www.w3.org/2000/svg">
<g id="Group 9">
<g id="Group">
<path id="Vector" d="M20 24.9907C17.2386 24.9907 15 27.2306 15 29.9938V40H25V29.9938C25 27.2306 22.7614 24.9907 20 24.9907Z" fill="#9381FF"/>
<g id="Group_2">
<path id="Vector_2" d="M28.3334 29.9938V40H35C37.7614 40 40 37.76 40 34.9969V19.7858C40.0004 18.9194 39.6639 18.0868 39.0616 17.4643L24.8984 2.14307C22.3993 -0.562522 18.1815 -0.728641 15.4776 1.77198C15.3491 1.8908 15.2254 2.01455 15.1067 2.14307L0.96836 17.4593C0.347891 18.0844 -0.000234257 18.9298 1.18268e-07 19.8108V34.9969C1.18268e-07 37.76 2.23859 40 5 40H11.6666V29.9938C11.6978 25.4463 15.3671 21.7327 19.7973 21.6257C24.3758 21.5152 28.2984 25.292 28.3334 29.9938Z" fill="#9381FF"/>
<path id="Vector_3" d="M20 24.9907C17.2386 24.9907 15 27.2306 15 29.9938V40H25V29.9938C25 27.2306 22.7614 24.9907 20 24.9907Z" fill="#9381FF"/>
</g>
</g>
</g>
</svg>
